<?xml version="1.0" encoding="utf-8"?>
<!-- Generator: Adobe Illustrator 19.0.1, SVG Export Plug-In . SVG Version: 6.00 Build 0)  -->
<svg version="1.1" id="Layer_1" xmlns="http://www.w3.org/2000/svg" xmlns:xlink="http://www.w3.org/1999/xlink" x="0px" y="0px"
	 viewBox="0 0 315.833 179.167" enable-background="new 0 0 315.833 179.167" xml:space="preserve">
<g>
	<path fill="#FFFFFF" d="M111.667,108l-1.9-5.5h-13.2l-2,5.5h-10.5l15.3-38.2h7.7l15.1,38.2H111.667z M103.367,81.7L103.367,81.7
		h-0.2l-3.9,13.1h8L103.367,81.7z"/>
	<path fill="#FFFFFF" d="M147.767,108l-14.5-23.2l-0.1,0.1l0.3,23.2h-9.3V69.8h8.4l14.7,24l0.1-0.1l-0.4-23.9h9.3V108H147.767z"/>
	<path fill="#FFFFFF" d="M173.967,108h-13.3V69.8h12.6c6.9,0,12.5,1.1,16.9,7.1c2.5,3.5,3.5,7.6,3.5,11.9
		C193.667,101.4,186.467,108,173.967,108z M174.567,78.4h-4.2v21.1h4.2c6.6,0,9.3-4.3,9.3-10.5
		C183.867,82.9,181.067,78.4,174.567,78.4z"/>
</g>
<g>
	<path fill="#FFFFFF" d="M123.067,169.9l-23.3-34.1h-0.1v34.1h-15.8l-42.8-61.5h17.8l25,36.4h0.2v-36.4h14.3l24.7,35.8h0.2v-35.8
		h15.7v61.5H123.067z"/>
	<path fill="#FFFFFF" d="M182.267,169.9v-24.6h-20.1v24.6h-15.7v-61.5h15.7v23.1h20.1v-23.1h15.7v61.5H182.267z"/>
	<path fill="#FFFFFF" d="M205.767,169.9v-61.5h15.7v61.5H205.767z"/>
	<path fill="#FFFFFF" d="M252.267,122.2v47.7h-15.6v-47.7h-12.1v-13.8h39.8v13.8H252.267z"/>
	<path fill="#FFFFFF" d="M295.067,171.1c-17.9,0-31.5-13.4-31.5-32c0-18.8,13.7-31.9,32.2-31.9c3.9,0,6.9,0.6,10.1,1.8v14.7
		c-2.2-1.4-5.5-2.7-10.2-2.7c-7.5,0-12.8,4.8-15.1,10.7h24.6v13.8h-24.8c2.2,6.6,7.7,11.7,15.4,11.7c4.2,0,7.3-1.1,10.1-2.9v14.9
		C303.467,170.2,298.667,171.1,295.067,171.1z"/>
</g>
<g>
	<path fill="#FFFFFF" d="M47.967,65.2c-6.3,5.4-12.1,5.3-20.1,5.3h-19.4V9h18.9c7.4,0,14.4,0.1,19.7,6c2.6,2.8,3.6,6.3,3.6,10.1
		c0,5.2-2.6,9.8-7.1,12.4c6.7,2.3,10.1,7.3,10.1,14.3C53.667,56.7,51.767,62,47.967,65.2z M29.467,22.8h-6.1v9.6h6
		c3.4,0,6.2-1,6.2-4.9S32.767,22.8,29.467,22.8z M31.267,45.5h-7.9v11.2h7.8c3.9,0,7.4-1.3,7.4-5.9
		C38.567,46.4,34.967,45.5,31.267,45.5z"/>
	<path fill="#FFFFFF" d="M102.267,70.5V52.8h-15.9l-2.6,3.9h8.8v13.8h-33.8V9h15.7v36.6h0.2L98.867,9h19.2v61.5H102.267z
		 M102.267,29.2h-0.2l-7.5,11.1h7.7V29.2z"/>
	<path fill="#FFFFFF" d="M155.667,71.7c-17.8,0-32.3-14-32.3-32s14.4-31.9,32.2-31.9c11.1,0,20.9,5.2,27,14.5c2,3,3.6,6.5,4.1,10.1
		h-16.4c-2.4-6.3-8-10.7-14.8-10.7c-10,0-16.4,8.5-16.4,18s6.5,18.3,16.5,18.3c6.9,0,12-4.3,14.8-10.4h16.3
		C183.067,62,170.467,71.7,155.667,71.7z"/>
	<path fill="#FFFFFF" d="M225.767,70.5l-16.8-26.6h-0.2v26.6h-15.7V9h15.7v27.7h0.2l17.3-27.7h16.4l-20.3,30.7l21.6,30.9h-18.2V70.5
		z"/>
</g>
</svg>
