<?xml version="1.0" encoding="utf-8"?>
<!-- Generator: Adobe Illustrator 19.0.1, SVG Export Plug-In . SVG Version: 6.00 Build 0)  -->
<svg version="1.1" id="Layer_1" xmlns="http://www.w3.org/2000/svg" xmlns:xlink="http://www.w3.org/1999/xlink" x="0px" y="0px"
	 viewBox="0 0 321.28 75.91" enable-background="new 0 0 321.28 75.91" xml:space="preserve">
<g>
	<g>
		<defs>
			<path id="SVGID_1_" d="M65.5,69.81c-4.9,0-9.4-1.1-13.4-2.9c-3.8,2-8.1,2.9-13.4,2.9c-19.3,0-32.4-15.4-32.4-32
				c0-15.7,12.1-31.8,32.2-31.8c5.8,0,9.8,1,13.4,2.9c4.1-1.8,8.6-2.9,13.7-2.9c18.9,0,32.5,14.8,32.5,31.9S84.6,69.81,65.5,69.81z
				 M33.6,38.61c0-7,2-13.4,5.6-18.8h-0.7c-10.5,0-16.4,9.2-16.4,17.9c0,9.3,6.3,18.3,16.5,18.3h0.7
				C35.6,50.71,33.6,44.51,33.6,38.61z M65.7,19.81H65c2.2,3,4,6.6,4.7,10.7H55.8c-0.6-1.7-1.6-3.5-3-5.1c-2.9,3.4-4.3,8-4.3,12.4
				c0,4.9,1.4,9.5,4.3,12.8c1.2-1.4,2.4-3.4,3-4.9h13.9c-0.9,3.8-2.7,7.3-4.8,10.4h1c11.1,0,16.5-10.1,16.5-18
				C82.4,30.01,77,19.81,65.7,19.81z M103.8,68.61V7.21h15.7v47.7h18.2v13.8h-33.9V68.61z M169.3,69.81c-17.4,0-32.3-13.4-32.3-31.1
				c0-4.6,0.7-8.9,2.4-13.1c0.9-2.4,2.4-4.8,4-6.9c6.3-8.3,15.5-12.6,26-12.6c17.9,0,32.5,13.8,32.5,31.9
				C201.8,56.11,187.3,69.81,169.3,69.81z M169.4,19.81c-10,0-16.8,8.3-16.8,17.9c0,9.8,6.7,18.3,16.9,18.3c9.9,0,16.5-8.6,16.5-18
				C186.1,28.41,179.5,19.81,169.4,19.81z M247.8,63.11c-4.6,4.7-10.6,6.6-17.2,6.6c-6.4,0-13.2-1.8-17.7-6.6
				c-5.6-5.9-6.1-11.1-6.1-18.9v-37h15.7v37.1c0,5.6,0.9,11.7,8,11.7c7.4,0,7.8-5.9,7.8-11.7V7.21H254v37.1
				C254,51.61,253.1,57.81,247.8,63.11z M291,68.61l-14.2-19.8h-0.2v19.8h-15V7.21H281c6.5,0,13.6,0.2,18.9,4.4
				c5.1,4.1,7.6,10.4,7.6,16.8c0,9.5-5.6,17.8-15.3,19.3l16.7,20.9H291z M282.4,20.91h-5.8v17.1h5.6c5.9,0,10.3-2.5,10.3-8.8
				C292.5,23.21,287.7,20.91,282.4,20.91z"/>
		</defs>
		<clipPath id="SVGID_2_">
			<use xlink:href="#SVGID_1_"  overflow="visible"/>
		</clipPath>
		<g clip-path="url(#SVGID_2_)">
			<rect y="24.81" fill="#68B345" width="321.5" height="26.1"/>
			<rect y="1.01" fill="#E42A26" width="321.5" height="26.1"/>
			<rect y="49.81" fill="#2C4D9C" width="321.5" height="26.1"/>
		</g>
	</g>
</g>
</svg>
