<?xml version="1.0" encoding="utf-8"?>
<!-- Generator: Adobe Illustrator 18.1.1, SVG Export Plug-In . SVG Version: 6.00 Build 0)  -->
<svg version="1.1" id="Layer_1" xmlns="http://www.w3.org/2000/svg" xmlns:xlink="http://www.w3.org/1999/xlink" x="0px" y="0px"
	 viewBox="0 0 97.8 69.1" enable-background="new 0 0 97.8 69.1" xml:space="preserve">
<g>
	<path fill="#FFFFFF" d="M33.5,18.1H22.4v-1.1h11.1V18.1z"/>
	<path fill="#FFFFFF" d="M43.9,18.1H32.8v-1.1h11.1V18.1z"/>
	<path fill="#FFFFFF" d="M54.3,18.1H43.3v-1.1h11.1V18.1z"/>
	<path fill="#FFFFFF" d="M64.8,18.1H53.7v-1.1h11.1V18.1z"/>
	<path fill="#FFFFFF" d="M75.2,18.1H64.1v-1.1h11.1V18.1z"/>
	<path fill="#FFFFFF" d="M33.5,35.1H22.4v-1.1h11.1V35.1z"/>
	<path fill="#FFFFFF" d="M43.9,35.1H32.8v-1.1h11.1V35.1z"/>
	<path fill="#FFFFFF" d="M54.3,35.1H43.3v-1.1h11.1V35.1z"/>
	<path fill="#FFFFFF" d="M64.8,35.1H53.7v-1.1h11.1V35.1z"/>
	<path fill="#FFFFFF" d="M75.2,35.1H64.1v-1.1h11.1V35.1z"/>
	<path fill="#FFFFFF" d="M33.5,52.1H22.4v-1.1h11.1V52.1z"/>
	<path fill="#FFFFFF" d="M43.9,52.1H32.8v-1.1h11.1V52.1z"/>
	<path fill="#FFFFFF" d="M54.3,52.1H43.3v-1.1h11.1V52.1z"/>
	<path fill="#FFFFFF" d="M64.8,52.1H53.7v-1.1h11.1V52.1z"/>
	<path fill="#FFFFFF" d="M75.2,52.1H64.1v-1.1h11.1V52.1z"/>
</g>
</svg>
