<?xml version="1.0" encoding="utf-8"?>
<!-- Generator: Adobe Illustrator 19.0.1, SVG Export Plug-In . SVG Version: 6.00 Build 0)  -->
<svg version="1.1" id="Layer_1" xmlns="http://www.w3.org/2000/svg" xmlns:xlink="http://www.w3.org/1999/xlink" x="0px" y="0px"
	 viewBox="0 0 58.72 47.443" enable-background="new 0 0 58.72 47.443" xml:space="preserve">
<g>
	<path fill="#FFFFFF" d="M14.62,38.977h-9.3v-27.5h8.2v17.2h0.1l12.1-17.2h8.9L14.62,38.977z"/>
	<path fill="#FFFFFF" d="M42.02,39.877c-5.7,0-10.5-3.1-11.2-9.1h8.2c0.2,1.7,1.5,2.5,3.1,2.5c1.2,0,2.9-0.7,2.9-2.1
		c0-2-2.2-2.6-3.7-3.2c-1.2-0.4-2.4-0.8-3.6-1.2c-3.3-1.2-6.5-3.3-6.5-7.2c0-5.8,5.3-9.1,10.6-9.1c5.5,0,10,2.8,10.5,8.7h-8.1
		c0-1.5-1.1-2.1-2.6-2.1c-1.1,0-2.3,0.6-2.3,1.8c0,4.3,13.8,1.9,13.8,11.6C53.22,36.777,47.62,39.877,42.02,39.877z"/>
</g>
</svg>
